<?xml version="1.0" encoding="UTF-8" standalone="no"?>
<!-- Created with Inkscape (http://www.inkscape.org/) -->

<svg
   xmlns:dc="http://purl.org/dc/elements/1.1/"
   xmlns:cc="http://creativecommons.org/ns#"
   xmlns:rdf="http://www.w3.org/1999/02/22-rdf-syntax-ns#"
   xmlns:svg="http://www.w3.org/2000/svg"
   xmlns="http://www.w3.org/2000/svg"
   xmlns:xlink="http://www.w3.org/1999/xlink"
   xmlns:sodipodi="http://sodipodi.sourceforge.net/DTD/sodipodi-0.dtd"
   xmlns:inkscape="http://www.inkscape.org/namespaces/inkscape"
   width="97.797394mm"
   height="101.30518mm"
   viewBox="0 0 97.797394 101.30518"
   version="1.1"
   id="svg3729"
   inkscape:version="0.92.4 (5da689c313, 2019-01-14)"
   sodipodi:docname="F4SG-2020-logo.svg">
  <defs
     id="defs3723">
    <linearGradient
       inkscape:collect="always"
       id="linearGradient4813">
      <stop
         style="stop-color:#ff0000;stop-opacity:1;"
         offset="0"
         id="stop4809" />
      <stop
         style="stop-color:#ff0000;stop-opacity:0;"
         offset="1"
         id="stop4811" />
    </linearGradient>
    <ellipse
       transform="matrix(-0.74438179,0.66775426,0.66775426,0.74438179,0,0)"
       style="opacity:0.43500001;fill:none;stroke:#ff00ff;stroke-width:0.35845962"
       ry="51.59375"
       rx="43.391666"
       cy="113.84671"
       cx="-20.77062"
       id="ellipse4651-7"
       inkscape:transform-center-x="-5.7579191"
       inkscape:transform-center-y="-9.4304782" />
    <linearGradient
       inkscape:collect="always"
       xlink:href="#linearGradient4813"
       id="linearGradient4815"
       x1="76.208035"
       y1="74.015496"
       x2="117.60472"
       y2="74.015496"
       gradientUnits="userSpaceOnUse" />
  </defs>
  <sodipodi:namedview
     id="base"
     pagecolor="#ffffff"
     bordercolor="#666666"
     borderopacity="1.0"
     inkscape:pageopacity="0.0"
     inkscape:pageshadow="2"
     inkscape:zoom="1"
     inkscape:cx="61.297464"
     inkscape:cy="193.71206"
     inkscape:document-units="mm"
     inkscape:current-layer="g4807"
     showgrid="false"
     inkscape:snap-center="true"
     inkscape:snap-text-baseline="true"
     inkscape:window-width="1920"
     inkscape:window-height="1046"
     inkscape:window-x="-11"
     inkscape:window-y="-11"
     inkscape:window-maximized="1" />
  <metadata
     id="metadata3726">
    <rdf:RDF>
      <cc:Work
         rdf:about="">
        <dc:format>image/svg+xml</dc:format>
        <dc:type
           rdf:resource="http://purl.org/dc/dcmitype/StillImage" />
        <dc:title></dc:title>
      </cc:Work>
    </rdf:RDF>
  </metadata>
  <g
     inkscape:label="Layer 1"
     inkscape:groupmode="layer"
     id="layer1"
     transform="translate(-47.624985,-23.625365)">
    <flowRoot
       xml:space="preserve"
       id="flowRoot3755"
       style="font-style:normal;font-weight:normal;font-size:40px;line-height:1.25;font-family:sans-serif;letter-spacing:0px;word-spacing:0px;fill:#000000;fill-opacity:1;stroke:none"
       transform="scale(0.26458333)"><flowRegion
         id="flowRegion3757"><rect
           id="rect3759"
           width="582.85712"
           height="885.71429"
           x="165.71428"
           y="156.8054" /></flowRegion><flowPara
         id="flowPara3761"></flowPara></flowRoot>    <flowRoot
       xml:space="preserve"
       id="flowRoot3763"
       style="font-style:normal;font-weight:normal;font-size:40px;line-height:1.25;font-family:sans-serif;letter-spacing:0px;word-spacing:0px;fill:#000000;fill-opacity:1;stroke:none"
       transform="scale(0.26458333)"><flowRegion
         id="flowRegion3765"><rect
           id="rect3767"
           width="228.80664"
           height="186.11244"
           x="253.19336"
           y="359.40723" /></flowRegion><flowPara
         id="flowPara3769"></flowPara></flowRoot>    <flowRoot
       xml:space="preserve"
       id="flowRoot3771"
       style="font-style:normal;font-weight:normal;font-size:40px;line-height:1.25;font-family:sans-serif;letter-spacing:0px;word-spacing:0px;fill:#000000;fill-opacity:1;stroke:none"
       transform="scale(0.26458333)"><flowRegion
         id="flowRegion3773"><rect
           id="rect3775"
           width="59"
           height="112"
           x="231"
           y="523.51971" /></flowRegion><flowPara
         id="flowPara3777"></flowPara></flowRoot>    <flowRoot
       xml:space="preserve"
       id="flowRoot3803"
       style="font-style:normal;font-weight:normal;font-size:40px;line-height:1.25;font-family:sans-serif;letter-spacing:0px;word-spacing:0px;fill:#000000;fill-opacity:1;stroke:none"
       transform="scale(0.26458333)"><flowRegion
         id="flowRegion3805"><rect
           id="rect3807"
           width="408"
           height="212"
           x="223"
           y="105.51968" /></flowRegion><flowPara
         id="flowPara3809"></flowPara></flowRoot>    <flowRoot
       xml:space="preserve"
       id="flowRoot3811"
       style="font-style:normal;font-variant:normal;font-weight:normal;font-stretch:normal;font-size:64px;line-height:1.25;font-family:Bahnschrift;-inkscape-font-specification:'Bahnschrift, Normal';font-variant-ligatures:normal;font-variant-caps:normal;font-variant-numeric:normal;font-feature-settings:normal;text-align:start;letter-spacing:0px;word-spacing:0px;writing-mode:lr-tb;text-anchor:start;fill:#000000;fill-opacity:1;stroke:none"
       transform="scale(0.26458333)"><flowRegion
         id="flowRegion3813"
         style="font-style:normal;font-variant:normal;font-weight:normal;font-stretch:normal;font-size:64px;font-family:Bahnschrift;-inkscape-font-specification:'Bahnschrift, Normal';font-variant-ligatures:normal;font-variant-caps:normal;font-variant-numeric:normal;font-feature-settings:normal;text-align:start;writing-mode:lr-tb;text-anchor:start"><rect
           id="rect3815"
           width="483"
           height="166"
           x="161"
           y="118.51968"
           style="font-style:normal;font-variant:normal;font-weight:normal;font-stretch:normal;font-size:64px;font-family:Bahnschrift;-inkscape-font-specification:'Bahnschrift, Normal';font-variant-ligatures:normal;font-variant-caps:normal;font-variant-numeric:normal;font-feature-settings:normal;text-align:start;writing-mode:lr-tb;text-anchor:start" /></flowRegion><flowPara
         id="flowPara3819"></flowPara></flowRoot>    <flowRoot
       xml:space="preserve"
       id="flowRoot3821"
       style="font-style:normal;font-weight:normal;font-size:40px;line-height:1.25;font-family:sans-serif;letter-spacing:0px;word-spacing:0px;fill:#000000;fill-opacity:1;stroke:none"
       transform="scale(0.26458333)"><flowRegion
         id="flowRegion3823"><rect
           id="rect3825"
           width="408"
           height="205"
           x="237"
           y="108.51968" /></flowRegion><flowPara
         id="flowPara3827"></flowPara></flowRoot>    <g
       id="g4776">
      <g
         id="g4807">
        <g
           aria-label="Forecasting for"
           style="font-style:normal;font-variant:normal;font-weight:normal;font-stretch:normal;font-size:19.75555611px;line-height:1.25;font-family:Georgia;-inkscape-font-specification:'Georgia, Normal';font-variant-ligatures:normal;font-variant-caps:normal;font-variant-numeric:normal;font-feature-settings:normal;text-align:start;letter-spacing:0px;word-spacing:0px;writing-mode:lr-tb;text-anchor:start;fill:#000000;fill-opacity:1;stroke:none;stroke-width:0.26458332"
           id="text3795">
          <path
             d="m 51.098717,72.59094 0.11519,0.714241 q -0.72008,0.321322 -1.474265,1.097606 -0.755722,0.766761 -0.747742,1.361499 0.0095,0.301363 0.05651,0.713933 0.04546,0.403047 0.128398,0.9173 l 0.365539,2.266525 5.42823,-0.875449 -0.250347,-1.552284 q -0.113655,-0.704718 -0.319474,-1.072131 -0.215343,-0.365878 -0.564626,-0.592903 -0.240228,-0.156675 -0.70287,-0.238396 -0.473701,-0.08971 -0.98611,-0.05592 l -0.116727,-0.723764 5.304429,-0.855483 0.116727,0.723764 q -0.414414,0.09615 -0.920068,0.353575 -0.50719,0.247904 -0.714553,0.476765 -0.306282,0.342524 -0.359434,0.800558 -0.06421,0.450046 0.03409,1.059532 l 0.250348,1.552284 4.65685,-0.751044 q 0.314266,-0.05068 0.541903,-0.214418 0.227637,-0.163735 0.329325,-0.502575 0.04362,-0.153599 0.06206,-0.645118 0.01844,-0.49152 -0.01197,-0.740659 l 0.676148,-0.109047 0.944564,5.856775 -0.676148,0.109047 q -0.06512,-0.282624 -0.180009,-0.752642 -0.12441,-0.468481 -0.214111,-0.600578 -0.169878,-0.26573 -0.427925,-0.351135 -0.269105,-0.09339 -0.611941,-0.0381 l -9.751769,1.572737 q -0.314266,0.05068 -0.535452,0.193836 -0.230708,0.144688 -0.329324,0.502574 -0.08233,0.277093 -0.106915,0.73052 -0.02612,0.443903 -0.0037,0.704102 L 49.4274,83.735514 47.71797,73.136179 Z"
             style="font-style:normal;font-variant:normal;font-weight:normal;font-stretch:normal;font-size:19.75555611px;font-family:Georgia;-inkscape-font-specification:'Georgia, Normal';font-variant-ligatures:normal;font-variant-caps:normal;font-variant-numeric:normal;font-feature-settings:normal;text-align:start;writing-mode:lr-tb;text-anchor:start;stroke-width:0.26458332"
             id="path4697"
             inkscape:connector-curvature="0" />
          <path
             d="m 58.184341,59.940661 q 0.988881,0.168961 1.895624,0.646828 0.897235,0.476242 1.463726,1.169983 0.648578,0.786055 0.871568,1.714686 0.222989,0.928632 0.03941,2.003089 -0.152715,0.893797 -0.623605,1.645155 -0.480398,0.749734 -1.2342,1.266818 -0.742668,0.509201 -1.718842,0.724068 -0.984058,0.203733 -2.125075,0.0088 -2.196457,-0.375289 -3.376503,-1.888244 -1.178421,-1.522464 -0.824252,-3.595312 0.336297,-1.968254 1.885183,-3.014941 1.541003,-1.057821 3.746969,-0.680908 z m -0.317281,1.971503 q -0.713136,-0.121847 -1.526708,-0.114064 -0.823081,0.0062 -1.423312,0.197185 -0.641513,0.203544 -1.077807,0.637874 -0.445803,0.432704 -0.56765,1.14584 -0.125096,0.732152 0.146872,1.316854 0.273592,0.575194 0.845914,1.005707 0.528029,0.403373 1.24857,0.653704 0.72054,0.250331 1.414659,0.368929 0.912813,0.155964 1.716878,0.146556 0.79618,-0.02054 1.45996,-0.239853 0.663779,-0.219312 1.098449,-0.644133 0.426785,-0.435954 0.550257,-1.158598 0.203078,-1.188559 -0.82885,-2.079257 -1.031927,-0.890698 -3.057232,-1.236744 z"
             style="font-style:normal;font-variant:normal;font-weight:normal;font-stretch:normal;font-size:19.75555611px;font-family:Georgia;-inkscape-font-specification:'Georgia, Normal';font-variant-ligatures:normal;font-variant-caps:normal;font-variant-numeric:normal;font-feature-settings:normal;text-align:start;writing-mode:lr-tb;text-anchor:start;stroke-width:0.26458332"
             id="path4699"
             inkscape:connector-curvature="0" />
          <path
             d="m 59.158573,49.338965 q 0.445321,0.209077 0.692104,0.591354 0.23805,0.378178 0.02487,0.832231 -0.229575,0.48898 -0.605783,0.632046 -0.372109,0.134335 -0.677722,-0.0091 -0.192099,-0.09019 -0.336973,-0.190177 -0.140774,-0.108719 -0.285647,-0.208707 -0.192679,0.410394 -0.119144,1.11628 0.07354,0.705886 0.504381,1.377053 l 5.012046,2.353146 q 0.305612,0.143485 0.551006,0.120162 0.249493,-0.03205 0.46443,-0.240182 0.189807,-0.177299 0.393348,-0.497341 0.207642,-0.328774 0.343992,-0.573796 l 0.576298,0.270571 -2.131769,4.540529 -0.576298,-0.270571 q 0.07683,-0.20903 0.157752,-0.426792 0.08503,-0.226494 0.106426,-0.408263 0.0362,-0.281386 -0.102603,-0.48509 -0.143437,-0.216535 -0.457782,-0.364119 l -5.317658,-2.49663 q -0.270686,-0.127086 -0.594133,-0.119096 -0.319347,-7.42e-4 -0.583108,0.152493 -0.182673,0.116709 -0.33292,0.323238 -0.158979,0.202429 -0.29943,0.456183 l -0.567566,-0.266471 1.152555,-2.954217 0.179639,-0.06485 1.213719,0.569839 0.0205,-0.04366 q -0.453102,-0.873435 -0.508271,-1.709232 -0.05517,-0.835798 0.203104,-1.3859 0.258272,-0.550103 0.776158,-0.722561 0.521986,-0.181189 1.124479,0.10168 z"
             style="font-style:normal;font-variant:normal;font-weight:normal;font-stretch:normal;font-size:19.75555611px;font-family:Georgia;-inkscape-font-specification:'Georgia, Normal';font-variant-ligatures:normal;font-variant-caps:normal;font-variant-numeric:normal;font-feature-settings:normal;text-align:start;writing-mode:lr-tb;text-anchor:start;stroke-width:0.26458332"
             id="path4701"
             inkscape:connector-curvature="0" />
          <path
             d="m 70.753935,44.18122 q 0.497459,1.185688 0.37993,2.389252 -0.117528,1.203565 -0.946225,2.208109 -0.73048,0.885486 -1.595469,1.297365 -0.85885,0.404438 -1.750639,0.394049 -0.891789,-0.01039 -1.784147,-0.383894 -0.88622,-0.380945 -1.682414,-1.037764 -0.714342,-0.589295 -1.214765,-1.377268 -0.501726,-0.801552 -0.690193,-1.694823 -0.178422,-0.859974 0.01725,-1.748978 0.194365,-0.902584 0.838906,-1.683896 0.662957,-0.803634 1.388617,-1.167888 0.72566,-0.364253 1.45933,-0.359253 0.69907,0.0015 1.399638,0.304288 0.706706,0.295381 1.36896,0.841707 l 0.49111,0.40514 -4.008434,4.859014 q 0.721783,0.595434 1.42012,0.946435 0.704476,0.343561 1.396479,0.414228 0.670983,0.06583 1.310704,-0.194247 0.63228,-0.266217 1.166328,-0.91359 0.546326,-0.662254 0.634106,-1.39016 0.08648,-0.741486 -0.348848,-1.850907 z m -4.154446,-0.663598 q -0.4167,-0.343755 -0.954313,-0.662208 -0.531474,-0.325894 -0.980348,-0.433586 -0.483475,-0.111226 -0.944805,0.0084 -0.46133,0.119626 -0.848055,0.588413 -0.644542,0.781312 -0.419422,1.842373 0.223816,1.047482 1.347791,2.049733 z"
             style="font-style:normal;font-variant:normal;font-weight:normal;font-stretch:normal;font-size:19.75555611px;font-family:Georgia;-inkscape-font-specification:'Georgia, Normal';font-variant-ligatures:normal;font-variant-caps:normal;font-variant-numeric:normal;font-feature-settings:normal;text-align:start;writing-mode:lr-tb;text-anchor:start;stroke-width:0.26458332"
             id="path4703"
             inkscape:connector-curvature="0" />
          <path
             d="m 77.111816,42.52259 q -1.682384,1.196212 -3.427387,0.756225 -1.745003,-0.439986 -3.080958,-2.318911 -0.581337,-0.817607 -0.832845,-1.704025 -0.249236,-0.899869 -0.175459,-1.828194 0.06696,-0.887971 0.526284,-1.72351 0.453733,-0.8434 1.279202,-1.430327 1.139934,-0.810517 2.246624,-0.768873 1.101101,0.03378 1.771874,0.977175 0.279489,0.39308 0.308811,0.833838 0.02373,0.432895 -0.408656,0.740333 -0.463835,0.329796 -0.890961,0.278411 -0.419265,-0.05698 -0.626086,-0.347855 -0.25154,-0.353773 -0.41992,-0.790346 -0.17397,-0.444435 -0.281222,-0.628569 -0.314792,-0.143094 -0.653707,-0.02048 -0.336644,0.109165 -0.65897,0.338345 -0.377357,0.268309 -0.605883,0.679353 -0.226254,0.397593 -0.241142,1.059162 -0.01139,0.599902 0.282922,1.396704 0.294314,0.796801 0.953907,1.724471 1.039698,1.46226 2.343943,1.931569 1.306517,0.455857 2.359973,-0.293173 0.762576,-0.542208 1.010862,-1.275039 0.256147,-0.73842 0.170958,-1.790439 l 0.737914,-0.02756 q 0.140727,1.296595 -0.322633,2.442742 -0.46336,1.146146 -1.367445,1.78897 z"
             style="font-style:normal;font-variant:normal;font-weight:normal;font-stretch:normal;font-size:19.75555611px;font-family:Georgia;-inkscape-font-specification:'Georgia, Normal';font-variant-ligatures:normal;font-variant-caps:normal;font-variant-numeric:normal;font-feature-settings:normal;text-align:start;writing-mode:lr-tb;text-anchor:start;stroke-width:0.26458332"
             id="path4705"
             inkscape:connector-curvature="0" />
          <path
             d="m 89.211749,36.468542 q -0.368802,0.310524 -0.661357,0.521023 -0.28017,0.216219 -0.687523,0.36619 -0.706077,0.259949 -1.251511,0.0907 -0.539714,-0.181631 -0.890681,-0.771966 l -0.05431,0.02 q -0.348446,0.868388 -0.900725,1.462326 -0.543226,0.590604 -1.493715,0.940536 -1.004803,0.369927 -1.883189,-0.0057 -0.869334,-0.378935 -1.235929,-1.374685 -0.189963,-0.51598 -0.195097,-0.976655 -0.0051,-0.460676 0.164563,-0.893203 0.126326,-0.354886 0.420818,-0.699728 0.291159,-0.353894 0.570383,-0.600603 0.350697,-0.303859 1.437556,-1.176841 1.095911,-0.876314 1.443771,-1.271642 l -0.329935,-0.896176 q -0.04333,-0.117679 -0.220948,-0.432617 -0.16857,-0.318271 -0.44149,-0.557008 -0.304354,-0.268281 -0.729271,-0.389383 -0.419197,-0.133488 -1.0257,0.0898 -0.416404,0.153303 -0.725173,0.431447 -0.303048,0.265758 -0.391229,0.47297 0.06665,0.181046 0.278098,0.50409 0.220498,0.319712 0.330476,0.618437 0.116644,0.31683 -0.07638,0.685992 -0.183973,0.365829 -0.690901,0.552459 -0.452614,0.166634 -0.786512,-0.07021 -0.328179,-0.249231 -0.474817,-0.647531 -0.153303,-0.416405 -0.0036,-0.903246 0.158753,-0.490174 0.519493,-0.962199 0.314037,-0.403434 0.830062,-0.788719 0.512692,-0.394337 1.064881,-0.59763 0.760392,-0.279945 1.361625,-0.377944 0.606953,-0.110384 1.195261,0.06364 0.584975,0.164968 1.033626,0.657664 0.45437,0.480311 0.787638,1.385539 0.476573,1.294476 0.819344,2.309276 0.339438,1.005749 0.776019,2.191597 0.129974,0.353039 0.324305,0.517917 0.203384,0.161545 0.51017,0.213066 0.165779,0.03148 0.458784,-0.06611 0.302058,-0.100926 0.609835,-0.214237 z M 84.29285,32.852044 q -0.686127,0.509585 -1.185489,0.940131 -0.499361,0.430546 -0.87726,0.939725 -0.339303,0.474412 -0.445183,0.996516 -0.109213,0.513053 0.104079,1.092398 0.276612,0.75134 0.795835,0.961073 0.528274,0.206401 1.134777,-0.01689 0.642712,-0.236621 1.018224,-0.724363 0.372179,-0.496794 0.550477,-1.04556 z"
             style="font-style:normal;font-variant:normal;font-weight:normal;font-stretch:normal;font-size:19.75555611px;font-family:Georgia;-inkscape-font-specification:'Georgia, Normal';font-variant-ligatures:normal;font-variant-caps:normal;font-variant-numeric:normal;font-feature-settings:normal;text-align:start;writing-mode:lr-tb;text-anchor:start;stroke-width:0.26458332"
             id="path4707"
             inkscape:connector-curvature="0" />
          <path
             d="m 96.078516,31.318857 q 0.426574,0.308296 0.680728,0.739563 0.254154,0.431266 0.316204,1.084271 0.125013,1.315612 -0.784709,2.245062 -0.90012,0.928537 -2.46541,1.077275 -0.825859,0.07848 -1.555167,-0.152605 -0.719704,-0.231993 -1.041123,-0.453384 l -0.132747,0.642446 -0.720226,0.06844 -0.409019,-3.284708 0.662608,-0.06296 q 0.112412,0.367217 0.40954,0.842848 0.297129,0.475632 0.690765,0.845196 0.414668,0.386945 0.960605,0.62576 0.555541,0.237902 1.208546,0.175852 0.921889,-0.0876 1.382008,-0.54798 0.459206,-0.469983 0.385293,-1.247826 -0.03833,-0.403327 -0.228951,-0.675905 -0.181936,-0.283093 -0.51022,-0.474762 -0.337887,-0.190757 -0.815256,-0.319811 -0.478282,-0.138657 -1.061285,-0.257673 -0.464117,-0.09155 -1.042991,-0.269102 -0.570185,-0.188062 -0.994021,-0.467549 -0.45447,-0.295955 -0.769892,-0.760159 -0.315422,-0.464203 -0.378384,-1.126811 -0.110413,-1.161964 0.677207,-2.050742 0.787621,-0.888779 2.237676,-1.026567 0.556974,-0.05292 1.146842,0.03637 0.599472,0.08838 0.983549,0.255371 l 0.173419,-0.520345 0.691416,-0.0657 0.433309,3.030467 -0.662607,0.06296 q -0.298389,-0.998757 -1.030825,-1.56868 -0.723746,-0.580439 -1.684047,-0.489189 -0.787447,0.07483 -1.201375,0.511437 -0.413929,0.436611 -0.361004,0.993585 0.04106,0.432136 0.212483,0.706539 0.181023,0.27349 0.497879,0.446865 0.306341,0.164686 0.754901,0.296477 0.457251,0.121276 1.120728,0.271405 0.652961,0.141438 1.235486,0.357397 0.592128,0.215046 0.988067,0.506872 z"
             style="font-style:normal;font-variant:normal;font-weight:normal;font-stretch:normal;font-size:19.75555611px;font-family:Georgia;-inkscape-font-specification:'Georgia, Normal';font-variant-ligatures:normal;font-variant-caps:normal;font-variant-numeric:normal;font-feature-settings:normal;text-align:start;writing-mode:lr-tb;text-anchor:start;stroke-width:0.26458332"
             id="path4709"
             inkscape:connector-curvature="0" />
          <path
             d="m 104.66475,36.294175 q -0.65417,0.181754 -1.2307,0.285608 -0.57771,0.113427 -1.3819,0.01426 -1.18715,-0.146392 -1.60221,-0.800174 -0.40431,-0.662175 -0.26973,-1.753583 l 0.78863,-6.395265 -1.704125,-0.210144 0.113336,-0.91908 1.742419,0.214866 0.36244,-2.939142 1.74242,0.214866 -0.36243,2.939142 2.70937,0.334104 -0.11334,0.91908 -2.69022,-0.331743 -0.6505,5.275137 q -0.0732,0.593572 -0.0845,1.000392 -5.3e-4,0.398427 0.12562,0.715283 0.11895,0.296528 0.4076,0.477913 0.28865,0.181385 0.80563,0.245136 0.23934,0.02951 0.70361,0.04789 0.47501,0.01 0.67475,-0.03343 z"
             style="font-style:normal;font-variant:normal;font-weight:normal;font-stretch:normal;font-size:19.75555611px;font-family:Georgia;-inkscape-font-specification:'Georgia, Normal';font-variant-ligatures:normal;font-variant-caps:normal;font-variant-numeric:normal;font-feature-settings:normal;text-align:start;writing-mode:lr-tb;text-anchor:start;stroke-width:0.26458332"
             id="path4711"
             inkscape:connector-curvature="0" />
          <path
             d="m 109.95451,38.365023 -4.39374,-1.366295 0.18905,-0.607938 q 0.21758,0.04746 0.44438,0.09778 0.23601,0.05319 0.419,0.04948 0.28369,-0.0027 0.46645,-0.168109 0.19484,-0.171756 0.29795,-0.503359 l 1.74439,-5.609613 q 0.0917,-0.294758 0.028,-0.577214 -0.0516,-0.288803 -0.23955,-0.529078 -0.14064,-0.164957 -0.44933,-0.341763 -0.30583,-0.186017 -0.57643,-0.29037 l 0.18618,-0.598727 3.26851,0.794148 0.0888,0.169057 -2.30293,7.405795 q -0.10026,0.322392 -0.0464,0.571485 0.0631,0.251959 0.29869,0.436348 0.17687,0.145916 0.35312,0.261335 0.17911,0.106207 0.41287,0.199102 z m 2.81224,-13.136826 q -0.16327,0.525038 -0.63646,0.812274 -0.46112,0.280889 -0.96773,0.12335 -0.46977,-0.146082 -0.70522,-0.623375 -0.22338,-0.48364 -0.0744,-0.962621 0.15754,-0.506616 0.61579,-0.778294 0.46746,-0.268813 0.93723,-0.122731 0.52504,0.163268 0.74493,0.625621 0.23197,0.456006 0.0859,0.925776 z"
             style="font-style:normal;font-variant:normal;font-weight:normal;font-stretch:normal;font-size:19.75555611px;font-family:Georgia;-inkscape-font-specification:'Georgia, Normal';font-variant-ligatures:normal;font-variant-caps:normal;font-variant-numeric:normal;font-feature-settings:normal;text-align:start;writing-mode:lr-tb;text-anchor:start;stroke-width:0.26458332"
             id="path4713"
             inkscape:connector-curvature="0" />
          <path
             d="m 120.14521,44.044863 -3.9711,-2.436808 0.33298,-0.542635 q 0.19919,0.09959 0.43127,0.219371 0.2403,0.124821 0.41856,0.166303 0.27562,0.06727 0.49349,-0.04802 0.23115,-0.118468 0.41277,-0.41445 l 2.55789,-4.16842 q 0.52974,-0.863282 0.40623,-1.584179 -0.11529,-0.715851 -0.69903,-1.074057 -0.43576,-0.267393 -0.88328,-0.34961 -0.44248,-0.09044 -0.8431,-0.06465 -0.38736,0.02261 -0.68801,0.143694 -0.28739,0.117907 -0.44211,0.204048 l -2.8606,4.661725 q -0.17153,0.279539 -0.16742,0.531049 0.004,0.25151 0.17378,0.491435 0.1222,0.188166 0.2943,0.350358 0.18032,0.167237 0.38399,0.314855 l -0.33298,0.542634 -3.9711,-2.436807 0.33298,-0.542635 q 0.19919,0.09959 0.4066,0.204235 0.21564,0.109685 0.3939,0.151168 0.27562,0.06727 0.49349,-0.04802 0.23114,-0.118468 0.41277,-0.41445 l 3.0725,-5.007037 q 0.17153,-0.279539 0.18947,-0.585425 0.0312,-0.309062 -0.0917,-0.588228 -0.0957,-0.194518 -0.28421,-0.366801 -0.18349,-0.180504 -0.42005,-0.348302 l 0.32793,-0.534413 2.80772,1.473931 0.0445,0.185737 -0.70127,1.142821 0.0411,0.02523 q 0.3184,-0.07624 0.78088,-0.16593 0.46751,-0.09791 0.83656,-0.109125 0.42528,-0.01065 0.92532,0.115103 0.50003,0.125755 1.02622,0.448645 1.16748,0.716411 1.27754,1.791216 0.12333,1.071628 -0.61831,2.280223 l -2.58816,4.217751 q -0.17658,0.28776 -0.18891,0.52918 -0.007,0.233199 0.1706,0.478169 0.14687,0.203301 0.26646,0.321955 0.12781,0.1237 0.37259,0.296543 z"
             style="font-style:normal;font-variant:normal;font-weight:normal;font-stretch:normal;font-size:19.75555611px;font-family:Georgia;-inkscape-font-specification:'Georgia, Normal';font-variant-ligatures:normal;font-variant-caps:normal;font-variant-numeric:normal;font-feature-settings:normal;text-align:start;writing-mode:lr-tb;text-anchor:start;stroke-width:0.26458332"
             id="path4715"
             inkscape:connector-curvature="0" />
          <path
             d="m 127.03929,50.547779 q -0.029,0.531415 -0.23781,1.000482 -0.20878,0.469066 -0.73032,0.912992 -0.52153,0.443926 -1.17078,0.603868 -0.6566,0.166194 -1.3884,-0.009 -0.76415,-0.198285 -1.53662,-0.718856 -0.77246,-0.520571 -1.62905,-1.52691 -1.40056,-1.645402 -1.60978,-2.87342 -0.21656,-1.221767 0.70898,-2.009579 0.74924,-0.637753 1.68283,-0.419005 0.93358,0.218747 1.74562,1.098332 l 0.10283,-0.08753 q -0.12146,-0.276639 -0.22605,-0.592978 -0.0972,-0.322592 -0.10883,-0.604084 -0.008,-0.322287 0.0973,-0.614885 0.11298,-0.29885 0.4215,-0.561454 0.38931,-0.331382 0.94385,-0.334706 0.56815,-0.0022 1.27839,0.355951 l 0.11019,-0.09379 q -0.26969,-0.986533 -0.0869,-1.813521 0.19015,-0.833239 0.87328,-1.41472 1.02838,-0.875347 2.33974,-0.674133 1.3176,0.208559 2.33676,1.405882 0.28136,0.330549 0.49036,0.710026 0.21525,0.386821 0.40003,0.812251 l 2.15085,2.526867 -0.70517,0.600237 -1.45058,-1.704165 -0.0441,0.03751 q -0.0845,0.540642 -0.35394,0.997991 -0.26942,0.457348 -0.6367,0.769972 -0.95492,0.812822 -2.27878,0.596918 -1.31761,-0.208559 -2.19296,-1.236935 l -0.75655,-0.88881 q -0.20257,-0.118928 -0.51314,-0.171265 -0.31057,-0.05234 -0.57501,0.172753 -0.27178,0.231342 -0.28739,0.510648 -0.008,0.273053 0.12789,0.537187 0.12256,0.26304 0.34546,0.554676 0.22916,0.298981 0.47816,0.606401 0.26777,0.329456 0.70623,0.91898 0.44471,0.596869 0.63744,0.838179 0.27293,0.3504 0.41363,0.813344 0.14696,0.47029 0.12746,0.968258 z m 2.60897,-5.640997 q 0.85943,-0.73154 1.06615,-1.515547 0.22032,-0.782914 -0.31739,-1.41463 -0.29387,-0.345241 -0.65336,-0.46994 -0.3459,-0.123605 -0.74164,-0.05277 -0.36745,0.05942 -0.76897,0.287178 -0.38791,0.22885 -0.74784,0.535221 -0.81536,0.694025 -1.02943,1.484285 -0.20781,0.797605 0.27363,1.363211 0.53771,0.631717 1.33217,0.538191 0.80805,-0.09243 1.58668,-0.755196 z m -4.87429,6.581144 q 0.41135,-0.350139 0.51323,-0.766212 0.10187,-0.416073 -0.13402,-0.886669 -0.14568,-0.230685 -0.65292,-0.90101 -0.50724,-0.670325 -1.22627,-1.515062 -0.82953,-0.662017 -1.47707,-0.69354 -0.64864,-0.01793 -1.2216,0.469768 -0.25709,0.218836 -0.39836,0.529099 -0.14127,0.310262 -0.10826,0.750864 0.0278,0.419659 0.27922,0.953085 0.24402,0.53968 0.77549,1.164051 0.91911,1.079794 1.86301,1.340429 0.94281,0.274232 1.78755,-0.444803 z"
             style="font-style:normal;font-variant:normal;font-weight:normal;font-stretch:normal;font-size:19.75555611px;font-family:Georgia;-inkscape-font-specification:'Georgia, Normal';font-variant-ligatures:normal;font-variant-caps:normal;font-variant-numeric:normal;font-feature-settings:normal;text-align:start;writing-mode:lr-tb;text-anchor:start;stroke-width:0.26458332"
             id="path4717"
             inkscape:connector-curvature="0" />
          <path
             d="m 144.71077,59.498722 q -0.41149,0.138217 -0.76867,0.01397 -0.35719,-0.124245 -0.50769,-0.572311 -0.0952,-0.28347 -0.0501,-0.54286 0.0482,-0.250246 0.18798,-0.500703 0.13974,-0.250457 0.34356,-0.49191 0.20382,-0.241453 0.32242,-0.403399 -0.23322,-0.603447 -1.17899,-0.662277 -0.93355,-0.05276 -2.74411,0.555395 l -0.92356,0.31022 0.78016,2.322628 -0.87785,0.294862 -0.78015,-2.322627 -6.4741,2.17461 q -0.32005,0.107502 -0.48129,0.293949 -0.15817,0.195591 -0.16969,0.49456 -0.009,0.247104 0.0594,0.631301 0.0771,0.381125 0.14792,0.65245 l -0.60352,0.202718 -1.59717,-4.754986 0.60352,-0.202718 q 0.0889,0.204174 0.18093,0.417492 0.0951,0.222462 0.20523,0.368629 0.1683,0.228394 0.4094,0.279696 0.25332,0.05738 0.58251,-0.0532 l 6.56554,-2.205325 -0.59894,-1.78312 0.87784,-0.294863 0.59894,1.78312 0.57609,-0.193503 q 2.05744,-0.691084 3.68478,-0.05729 1.63955,0.639864 2.17706,2.2401 0.27337,0.813834 0.0915,1.332825 -0.18183,0.518991 -0.63904,0.672565 z"
             style="font-style:normal;font-variant:normal;font-weight:normal;font-stretch:normal;font-size:19.75555611px;font-family:Georgia;-inkscape-font-specification:'Georgia, Normal';font-variant-ligatures:normal;font-variant-caps:normal;font-variant-numeric:normal;font-feature-settings:normal;text-align:start;writing-mode:lr-tb;text-anchor:start;stroke-width:0.26458332"
             id="path4719"
             inkscape:connector-curvature="0" />
          <path
             d="m 137.07039,72.192035 q -1.00042,0.07473 -1.9957,-0.170136 -0.98566,-0.245586 -1.70286,-0.782073 -0.81914,-0.606258 -1.25969,-1.453605 -0.44054,-0.847348 -0.52174,-1.934347 -0.0675,-0.90423 0.20805,-1.747035 0.28523,-0.843523 0.89193,-1.52727 0.59779,-0.67341 1.49324,-1.117552 0.90578,-0.43524 2.06012,-0.521469 2.22209,-0.165989 3.73244,1.01739 1.51107,1.192998 1.66772,3.290042 0.14874,1.99123 -1.10169,3.380838 -1.2401,1.398509 -3.47182,1.565217 z m -0.16798,-1.989793 q 0.72146,-0.05389 1.50909,-0.257826 0.79726,-0.204651 1.33363,-0.534912 0.57342,-0.352375 0.89197,-0.879174 0.32818,-0.527518 0.27428,-1.248978 -0.0553,-0.740699 -0.46039,-1.242464 -0.40434,-0.492145 -1.06366,-0.771782 -0.60978,-0.26399 -1.36944,-0.332995 -0.75966,-0.069 -1.46188,-0.01655 -0.92347,0.06898 -1.70149,0.272197 -0.76768,0.212116 -1.35889,0.585166 -0.59121,0.37305 -0.91049,0.89023 -0.30893,0.526081 -0.25432,1.257161 0.0898,1.202433 1.30623,1.817707 1.21641,0.615274 3.26536,0.46222 z"
             style="font-style:normal;font-variant:normal;font-weight:normal;font-stretch:normal;font-size:19.75555611px;font-family:Georgia;-inkscape-font-specification:'Georgia, Normal';font-variant-ligatures:normal;font-variant-caps:normal;font-variant-numeric:normal;font-feature-settings:normal;text-align:start;writing-mode:lr-tb;text-anchor:start;stroke-width:0.26458332"
             id="path4721"
             inkscape:connector-curvature="0" />
          <path
             d="m 138.64138,82.745682 q -0.4822,-0.09753 -0.81258,-0.410402 -0.32092,-0.310955 -0.22148,-0.802604 0.1071,-0.529468 0.43866,-0.757651 0.32965,-0.218728 0.66057,-0.151792 0.208,0.04207 0.37245,0.104862 0.16254,0.07224 0.32699,0.135031 0.0899,-0.444375 -0.14891,-1.112699 -0.2388,-0.668325 -0.81649,-1.218207 l -5.42705,-1.097742 q -0.33092,-0.06694 -0.56378,0.0139 -0.23478,0.09029 -0.39425,0.343445 -0.14236,0.217246 -0.26422,0.57642 -0.12377,0.368629 -0.19814,0.638993 l -0.62401,-0.126221 0.99447,-4.91649 0.62401,0.126221 q -0.0251,0.221285 -0.0521,0.452025 -0.0289,0.240195 -0.007,0.421855 0.0315,0.281946 0.21469,0.446932 0.19069,0.176354 0.53106,0.245202 l 5.75796,1.164678 q 0.2931,0.05929 0.60543,-0.02516 0.31042,-0.07499 0.53033,-0.286394 0.14979,-0.156692 0.24679,-0.392954 0.10645,-0.23435 0.18274,-0.514169 l 0.61456,0.124309 -0.41928,3.143244 -0.15914,0.105593 -1.31421,-0.265829 -0.01,0.04727 q 0.64727,0.741104 0.89903,1.539991 0.25175,0.798887 0.13127,1.394538 -0.12049,0.595652 -0.58272,0.885979 -0.46414,0.299781 -1.11652,0.167822 z"
             style="font-style:normal;font-variant:normal;font-weight:normal;font-stretch:normal;font-size:19.75555611px;font-family:Georgia;-inkscape-font-specification:'Georgia, Normal';font-variant-ligatures:normal;font-variant-caps:normal;font-variant-numeric:normal;font-feature-settings:normal;text-align:start;writing-mode:lr-tb;text-anchor:start;stroke-width:0.26458332"
             id="path4723"
             inkscape:connector-curvature="0" />
        </g>
        <g
           aria-label="Social Good"
           style="font-style:normal;font-variant:normal;font-weight:normal;font-stretch:normal;font-size:19.75555611px;line-height:1.25;font-family:Georgia;-inkscape-font-specification:'Georgia, Normal';font-variant-ligatures:normal;font-variant-caps:normal;font-variant-numeric:normal;font-feature-settings:normal;text-align:start;letter-spacing:0px;word-spacing:0px;writing-mode:lr-tb;text-anchor:start;fill:#000000;fill-opacity:1;stroke:none;stroke-width:0.26458332"
           id="text3801">
          <path
             d="m 66.289367,101.60512 q -0.137819,0.63409 -0.489186,1.13664 -0.337901,0.50474 -0.956365,0.94998 -1.471786,1.05953 -3.210263,0.65892 -1.738478,-0.4006 -2.899461,-2.01331 -0.535405,-0.74372 -0.84378,-1.65088 -0.300545,-0.912796 -0.360615,-1.689678 l -0.813833,0.07478 -0.450867,-0.626292 3.725821,-2.848621 0.456503,0.634121 q -0.563682,0.702942 -0.94919,1.372704 -0.372044,0.671955 -0.555278,1.457589 -0.168826,0.739604 -0.05396,1.477037 0.120506,0.74526 0.639004,1.4655 0.388873,0.54017 0.817217,0.83799 0.43398,0.30565 0.872672,0.37018 0.438692,0.0645 0.867691,-0.066 0.442462,-0.12836 0.896524,-0.45524 0.665435,-0.47904 0.966406,-1.26624 0.3088,-0.79282 0.07088,-1.750711 -0.162785,-0.655394 -0.393508,-1.487712 -0.222894,-0.837954 -0.347478,-1.473305 -0.253554,-1.243773 0.04994,-2.258611 0.316955,-1.012645 1.420795,-1.807299 0.63412,-0.456504 1.368109,-0.592667 0.733988,-0.136164 1.50835,0.03141 0.733969,0.160998 1.406231,0.616022 0.680091,0.449388 1.164774,1.122652 0.552312,0.767207 0.751413,1.539089 0.204736,0.77971 0.252284,1.506177 l 0.763418,-0.06226 0.450868,0.626292 -3.642207,2.717113 -0.456504,-0.634122 q 0.510132,-0.628734 0.931649,-1.264988 0.427152,-0.628426 0.648894,-1.311037 0.21172,-0.663511 0.128472,-1.340506 -0.07542,-0.682631 -0.582646,-1.387209 -0.535405,-0.743722 -1.390554,-0.924455 -0.855149,-0.180733 -1.54407,0.315221 -0.720236,0.518498 -0.955442,1.198916 -0.227378,0.674783 -0.07056,1.53653 0.137414,0.768746 0.328378,1.463283 0.204429,0.69673 0.349364,1.376861 0.134605,0.616251 0.186231,1.232816 0.05726,0.62438 -0.05613,1.19333 z"
             style="font-style:normal;font-variant:normal;font-weight:normal;font-stretch:normal;font-size:19.75555611px;font-family:Georgia;-inkscape-font-specification:'Georgia, Normal';font-variant-ligatures:normal;font-variant-caps:normal;font-variant-numeric:normal;font-feature-settings:normal;text-align:start;writing-mode:lr-tb;text-anchor:start;fill:#000000;stroke-width:0.26458332"
             id="path4726"
             inkscape:connector-curvature="0" />
          <path
             d="m 72.707332,110.00057 q -0.69479,0.72367 -1.599164,1.206 -0.897694,0.47538 -1.789803,0.55495 -1.014582,0.0957 -1.908341,-0.24086 -0.893759,-0.33657 -1.680057,-1.09148 -0.654088,-0.62799 -1.011727,-1.43939 -0.350958,-0.81835 -0.355926,-1.73245 -0.0047,-0.90045 0.365277,-1.82901 0.383607,-0.92882 1.185287,-1.76383 1.543235,-1.60739 3.457717,-1.73506 1.921441,-0.12099 3.438369,1.33539 1.440385,1.3829 1.437515,3.25229 0.01077,1.8691 -1.539147,3.48345 z m -1.453747,-1.36898 q 0.50105,-0.52188 0.95117,-1.19964 0.456801,-0.68471 0.635528,-1.28872 0.191533,-0.6452 0.07688,-1.25006 -0.10797,-0.61181 -0.629849,-1.11286 -0.535796,-0.51441 -1.172372,-0.61743 -0.629619,-0.0963 -1.307128,0.13577 -0.630189,0.21068 -1.241741,0.66659 -0.611551,0.4559 -1.09924,0.96387 -0.641344,0.668 -1.084783,1.3388 -0.429801,0.67052 -0.620779,1.343 -0.190977,0.67248 -0.08329,1.27065 0.121332,0.5979 0.650169,1.10563 0.869799,0.83508 2.186122,0.48081 1.316323,-0.35428 2.739306,-1.83641 z"
             style="font-style:normal;font-variant:normal;font-weight:normal;font-stretch:normal;font-size:19.75555611px;font-family:Georgia;-inkscape-font-specification:'Georgia, Normal';font-variant-ligatures:normal;font-variant-caps:normal;font-variant-numeric:normal;font-feature-settings:normal;text-align:start;writing-mode:lr-tb;text-anchor:start;fill:#000000;stroke-width:0.26458332"
             id="path4728"
             inkscape:connector-curvature="0" />
          <path
             d="m 73.985221,116.9928 q -1.713538,-1.15114 -1.918565,-2.93904 -0.205028,-1.7879 1.080594,-3.70162 0.559433,-0.83275 1.299789,-1.38126 0.753741,-0.55114 1.648245,-0.81016 0.854345,-0.25114 1.798289,-0.11671 0.949323,0.12643 1.790077,0.69125 1.161042,0.77998 1.513154,1.82998 0.357491,1.042 -0.288009,2.00287 -0.268958,0.40036 -0.670918,0.58354 -0.396581,0.17517 -0.836976,-0.12069 -0.472424,-0.31737 -0.575286,-0.7351 -0.09485,-0.41234 0.104174,-0.70861 0.242063,-0.36032 0.59097,-0.67211 0.354286,-0.3198 0.488642,-0.4852 0.02263,-0.34504 -0.211842,-0.61877 -0.221081,-0.27635 -0.549375,-0.49689 -0.384345,-0.2582 -0.849624,-0.32673 -0.451892,-0.0712 -1.076041,0.14868 -0.565224,0.20133 -1.206619,0.75822 -0.641395,0.55689 -1.276137,1.50174 -1.000525,1.48934 -0.978678,2.87528 0.03523,1.38331 1.108197,2.10412 0.776697,0.52178 1.549985,0.49509 0.781295,-0.0213 1.735339,-0.47276 l 0.286535,0.68057 q -1.163216,0.58982 -2.399155,0.56137 -1.235939,-0.0285 -2.156765,-0.64706 z"
             style="font-style:normal;font-variant:normal;font-weight:normal;font-stretch:normal;font-size:19.75555611px;font-family:Georgia;-inkscape-font-specification:'Georgia, Normal';font-variant-ligatures:normal;font-variant-caps:normal;font-variant-numeric:normal;font-feature-settings:normal;text-align:start;writing-mode:lr-tb;text-anchor:start;fill:#000000;stroke-width:0.26458332"
             id="path4730"
             inkscape:connector-curvature="0" />
          <path
             d="m 82.200568,121.20048 -4.137193,-2.01379 0.278637,-0.57244 q 0.207931,0.0798 0.424535,0.16373 0.225278,0.0882 0.406729,0.11215 0.28085,0.0401 0.486482,-0.0958 0.218528,-0.14038 0.370512,-0.45262 l 2.571056,-5.28208 q 0.135097,-0.27755 0.114762,-0.56638 -0.0074,-0.29329 -0.156955,-0.55917 -0.114132,-0.1843 -0.392599,-0.40567 -0.274245,-0.23004 -0.526002,-0.37404 l 0.274415,-0.56377 3.111208,1.27836 0.06232,0.18053 -3.394301,6.97338 q -0.147762,0.30357 -0.132109,0.55794 0.02433,0.25859 0.229414,0.47643 0.152818,0.17094 0.309628,0.31164 0.161032,0.13202 0.378095,0.25914 z m 4.762748,-12.56189 q -0.24064,0.49438 -0.751764,0.7069 -0.498228,0.20808 -0.975263,-0.0241 -0.442342,-0.21531 -0.603058,-0.72267 -0.147822,-0.51181 0.07171,-0.96283 0.232197,-0.47703 0.726204,-0.67643 0.50268,-0.19518 0.945021,0.0201 0.494382,0.24064 0.641974,0.73088 0.160487,0.48579 -0.05482,0.92814 z"
             style="font-style:normal;font-variant:normal;font-weight:normal;font-stretch:normal;font-size:19.75555611px;font-family:Georgia;-inkscape-font-specification:'Georgia, Normal';font-variant-ligatures:normal;font-variant-caps:normal;font-variant-numeric:normal;font-feature-settings:normal;text-align:start;writing-mode:lr-tb;text-anchor:start;fill:#000000;stroke-width:0.26458332"
             id="path4732"
             inkscape:connector-curvature="0" />
          <path
             d="m 91.915036,124.22261 q -0.481432,0.0258 -0.841754,0.0176 -0.35388,0.004 -0.769384,-0.12178 -0.720206,-0.21776 -1.05367,-0.68138 -0.321438,-0.47007 -0.246042,-1.1527 l -0.0554,-0.0167 q -0.801186,0.48334 -1.599784,0.62482 -0.789363,0.14427 -1.758872,-0.14888 -1.024909,-0.3099 -1.499868,-1.13878 -0.465726,-0.8261 -0.158621,-1.84177 0.159137,-0.52631 0.432505,-0.89714 0.273369,-0.37084 0.669345,-0.6139 0.314592,-0.2072 0.757375,-0.30511 0.445574,-0.10713 0.817063,-0.13589 0.462966,-0.0313 1.85637,-0.0736 1.402637,-0.0395 1.918429,-0.14552 l 0.276395,-0.91411 q 0.03629,-0.12003 0.08419,-0.47842 0.05713,-0.35559 -0.01694,-0.71055 -0.08137,-0.39747 -0.347626,-0.75007 -0.25423,-0.35905 -0.872869,-0.5461 -0.424737,-0.12843 -0.838744,-0.0924 -0.401981,0.0296 -0.597177,0.14192 -0.05584,0.18467 -0.08162,0.5699 -0.01655,0.38802 -0.10868,0.69272 -0.09771,0.32317 -0.474148,0.5016 -0.3672,0.18122 -0.884272,0.0249 -0.461671,-0.1396 -0.585557,-0.52977 -0.111862,-0.39662 0.01098,-0.80289 0.128426,-0.42473 0.541154,-0.7232 0.421961,-0.29567 0.99423,-0.4552 0.493676,-0.1329 1.13766,-0.12965 0.646776,-0.006 1.210014,0.16431 0.775607,0.23452 1.314577,0.51842 0.550994,0.27745 0.915808,0.77071 0.367605,0.48402 0.428994,1.14754 0.07341,0.65709 -0.205771,1.58043 -0.399237,1.32038 -0.736834,2.33691 -0.334806,1.0073 -0.70054,2.21688 -0.108883,0.3601 -0.05306,0.60877 0.06505,0.25145 0.27892,0.47736 0.113375,0.12498 0.406052,0.22355 0.301911,0.10137 0.615847,0.19629 z M 90.166678,118.373 q -0.854636,-0.006 -1.51258,0.0365 -0.657943,0.0429 -1.266288,0.22178 -0.556594,0.17434 -0.955581,0.52734 -0.396195,0.34378 -0.574874,0.93472 -0.231725,0.76637 0.05643,1.24652 0.297387,0.48295 0.916026,0.67 0.655573,0.19823 1.249101,0.035 0.596319,-0.17241 1.069173,-0.50308 z"
             style="font-style:normal;font-variant:normal;font-weight:normal;font-stretch:normal;font-size:19.75555611px;font-family:Georgia;-inkscape-font-specification:'Georgia, Normal';font-variant-ligatures:normal;font-variant-caps:normal;font-variant-numeric:normal;font-feature-settings:normal;text-align:start;writing-mode:lr-tb;text-anchor:start;fill:#000000;stroke-width:0.26458332"
             id="path4734"
             inkscape:connector-curvature="0" />
          <path
             d="m 97.270602,124.93054 -4.605105,-0.56679 0.07777,-0.63189 q 0.222559,0.008 0.47384,0.0194 0.25246,0.002 0.42111,-0.0259 0.278678,-0.0532 0.438639,-0.2473 0.161139,-0.20371 0.20356,-0.54837 l 1.345693,-10.93354 q 0.04242,-0.34466 -0.07423,-0.66031 -0.105903,-0.32405 -0.324043,-0.52584 -0.158192,-0.1361 -0.605962,-0.2884 -0.447769,-0.1523 -0.723059,-0.20562 l 0.07541,-0.61274 3.579066,0.21697 0.11636,0.16011 -1.594328,12.95366 q -0.04124,0.33509 0.05612,0.57061 0.09854,0.22595 0.362044,0.37501 0.198845,0.12166 0.394008,0.19428 0.204736,0.0738 0.460878,0.12475 z"
             style="font-style:normal;font-variant:normal;font-weight:normal;font-stretch:normal;font-size:19.75555611px;font-family:Georgia;-inkscape-font-specification:'Georgia, Normal';font-variant-ligatures:normal;font-variant-caps:normal;font-variant-numeric:normal;font-feature-settings:normal;text-align:start;writing-mode:lr-tb;text-anchor:start;fill:#000000;stroke-width:0.26458332"
             id="path4736"
             inkscape:connector-curvature="0" />
          <path
             d="m 115.12254,116.78598 q -0.21738,0.0847 -0.58432,0.24701 -0.35994,0.15056 -0.56543,0.32183 -0.24516,0.21113 -0.30063,0.5037 -0.0485,0.28086 0.0389,0.62692 l 0.25974,1.02881 q 0.28335,1.12233 0.39188,1.51279 0.11788,0.38809 0.20034,0.6359 -1.10225,0.87521 -2.26126,1.48619 -1.15901,0.61097 -2.34682,0.91085 -1.27198,0.32113 -2.57086,0.14166 -1.29887,-0.17948 -2.4,-0.83668 -1.11283,-0.6642 -1.95772,-1.80395 -0.84489,-1.13975 -1.24158,-2.71102 -0.38252,-1.51516 -0.21268,-2.93099 0.17684,-1.42755 0.85257,-2.61294 0.65239,-1.1596 1.74774,-1.98332 1.10234,-0.83545 2.50526,-1.18964 1.12233,-0.28335 2.02321,-0.22227 0.90088,0.0611 1.63368,0.28398 l 0.2229,-0.7328 0.74822,-0.1889 1.25536,4.61774 -0.76693,0.19362 q -0.39003,-0.71734 -0.86651,-1.38301 -0.47884,-0.67503 -1.08588,-1.14855 -0.60705,-0.47353 -1.35846,-0.65193 -0.74443,-0.19012 -1.661,0.0413 -1.00075,0.25265 -1.68249,0.86252 -0.6841,0.60052 -1.06091,1.55126 -0.37454,0.92032 -0.39038,2.15799 -0.0159,1.23767 0.34542,2.66865 0.31877,1.26262 0.90141,2.3094 0.58963,1.03506 1.37494,1.70236 0.79002,0.686 1.78026,0.9434 0.99023,0.25739 2.09386,-0.0212 0.82305,-0.20779 1.4327,-0.63032 0.619,-0.4249 0.82874,-0.77632 -0.048,-0.50524 -0.17311,-1.00094 -0.11579,-0.49806 -0.20316,-0.84411 l -0.18417,-0.72952 q -0.0992,-0.39282 -0.28697,-0.66377 -0.1808,-0.28267 -0.55292,-0.33796 -0.34406,-0.0624 -0.8937,0.007 -0.54265,0.0574 -0.84666,0.11427 l -0.17237,-0.68276 5.81744,-1.4687 z"
             style="font-style:normal;font-variant:normal;font-weight:normal;font-stretch:normal;font-size:19.75555611px;font-family:Georgia;-inkscape-font-specification:'Georgia, Normal';font-variant-ligatures:normal;font-variant-caps:normal;font-variant-numeric:normal;font-feature-settings:normal;text-align:start;writing-mode:lr-tb;text-anchor:start;fill:#000000;stroke-width:0.26458332"
             id="path4738"
             inkscape:connector-curvature="0" />
          <path
             d="m 122.21824,112.20479 q 0.55226,0.83752 0.82284,1.82612 0.26527,0.98055 0.14574,1.86818 -0.13085,1.01065 -0.65658,1.80795 -0.52574,0.7973 -1.43574,1.39735 -0.75699,0.49916 -1.62736,0.66867 -0.87568,0.16145 -1.76827,-0.0357 -0.87924,-0.19439 -1.70309,-0.76039 -0.8211,-0.57937 -1.45833,-1.54574 -1.22665,-1.86026 -0.92813,-3.75563 0.30657,-1.90068 2.06214,-3.0583 1.66699,-1.09921 3.48954,-0.68335 1.82528,0.40251 3.05724,2.27083 z m -1.65637,1.11531 q -0.39826,-0.60398 -0.9598,-1.19273 -0.56686,-0.59681 -1.11644,-0.90458 -0.58693,-0.32937 -1.20217,-0.35121 -0.62055,-0.0299 -1.22453,0.36838 -0.62009,0.40889 -0.86122,1.00696 -0.23308,0.59277 -0.15641,1.30482 0.0662,0.66117 0.37572,1.35834 0.30951,0.69718 0.69715,1.28505 0.50978,0.7731 1.06601,1.3538 0.55898,0.56734 1.17263,0.90219 0.61366,0.33485 1.22085,0.362 0.60992,0.0138 1.22196,-0.3898 1.00664,-0.66377 0.95198,-2.02584 -0.0547,-1.36207 -1.18573,-3.07738 z"
             style="font-style:normal;font-variant:normal;font-weight:normal;font-stretch:normal;font-size:19.75555611px;font-family:Georgia;-inkscape-font-specification:'Georgia, Normal';font-variant-ligatures:normal;font-variant-caps:normal;font-variant-numeric:normal;font-feature-settings:normal;text-align:start;writing-mode:lr-tb;text-anchor:start;fill:#000000;stroke-width:0.26458332"
             id="path4740"
             inkscape:connector-curvature="0" />
          <path
             d="m 128.24108,105.08223 q 0.76579,0.64807 1.30386,1.52044 0.5307,0.86613 0.66602,1.7515 0.1591,1.00659 -0.12078,1.91968 -0.27989,0.9131 -0.98404,1.74516 -0.58576,0.69216 -1.37315,1.09995 -0.79475,0.40156 -1.70674,0.46381 -0.89839,0.0611 -1.8483,-0.24993 -0.95105,-0.32464 -1.83466,-1.07241 -1.70094,-1.43946 -1.94835,-3.34218 -0.24118,-1.91008 1.11727,-3.5153 1.28991,-1.52423 3.1558,-1.63852 1.86476,-0.12789 3.57307,1.3178 z m -1.27518,1.53669 q -0.55226,-0.46736 -1.25689,-0.87412 -0.712,-0.41299 -1.32602,-0.55351 -0.65594,-0.15072 -1.25242,0.002 -0.60384,0.14611 -1.0712,0.69836 -0.47982,0.56698 -0.54274,1.20877 -0.0567,0.63441 0.21743,1.29604 0.24976,0.61575 0.7431,1.19753 0.49333,0.58177 1.03086,1.03667 0.70689,0.59822 1.40416,0.99874 0.69614,0.38693 1.37926,0.53539 0.68313,0.14846 1.27338,0.003 0.58912,-0.15857 1.06271,-0.71819 0.77893,-0.92042 0.34285,-2.21196 -0.43608,-1.29153 -2.00448,-2.61882 z"
             style="font-style:normal;font-variant:normal;font-weight:normal;font-stretch:normal;font-size:19.75555611px;font-family:Georgia;-inkscape-font-specification:'Georgia, Normal';font-variant-ligatures:normal;font-variant-caps:normal;font-variant-numeric:normal;font-feature-settings:normal;text-align:start;writing-mode:lr-tb;text-anchor:start;fill:#000000;stroke-width:0.26458332"
             id="path4742"
             inkscape:connector-curvature="0" />
          <path
             d="m 136.88166,97.456157 -1.18352,3.107333 -0.18291,0.0756 -0.80748,-0.36816 -0.0496,0.0622 q 0.30097,0.68851 0.31759,1.51241 0.0206,0.81512 -0.30353,1.52606 -0.33615,0.73727 -0.97704,1.28259 -0.64567,0.53254 -1.47461,0.76949 -0.84172,0.24172 -1.83315,0.16074 -0.98743,-0.0898 -2.01435,-0.55796 -0.93914,-0.42819 -1.63367,-1.13711 -0.69453,-0.70892 -1.06636,-1.56755 -0.34395,-0.80352 -0.34288,-1.73597 0.005,-0.941228 0.37324,-1.748715 0.27613,-0.605615 0.69823,-1.112867 0.41733,-0.520031 0.84639,-0.83328 l -3.01052,-1.37261 q -0.36863,-0.168074 -0.72308,-0.181256 -0.36322,-0.01718 -0.62125,0.13021 -0.27881,0.169723 -0.54111,0.559006 -0.26708,0.376505 -0.52229,0.843234 l -0.54417,-0.24811 1.41084,-3.629184 0.19169,-0.07163 11.67345,5.322363 q 0.30719,0.140062 0.57864,0.126005 0.26667,-0.02684 0.51993,-0.187009 0.18136,-0.118742 0.35175,-0.42271 0.1704,-0.303968 0.29923,-0.563277 z m -2.96307,2.476201 -5.06435,-2.309025 q -0.26022,-0.03383 -0.59556,0.0041 -0.33534,0.03793 -0.66282,0.174869 -0.33547,0.154489 -0.63197,0.432765 -0.30528,0.274274 -0.51338,0.730679 -0.2401,0.526622 -0.1721,1.098304 0.072,0.56291 0.42499,1.13732 0.34345,0.54885 1.01901,1.0901 0.67079,0.52847 1.59238,0.94865 0.73727,0.33615 1.40691,0.47184 0.66087,0.13169 1.33078,0.0343 0.63158,-0.0831 1.14609,-0.421 0.51852,-0.34667 0.81865,-1.00495 0.32015,-0.70216 0.22104,-1.29863 -0.0951,-0.60524 -0.31967,-1.089295 z"
             style="font-style:normal;font-variant:normal;font-weight:normal;font-stretch:normal;font-size:19.75555611px;font-family:Georgia;-inkscape-font-specification:'Georgia, Normal';font-variant-ligatures:normal;font-variant-caps:normal;font-variant-numeric:normal;font-feature-settings:normal;text-align:start;writing-mode:lr-tb;text-anchor:start;fill:#000000;stroke-width:0.26458332"
             id="path4744"
             inkscape:connector-curvature="0" />
        </g>
        <ellipse
           style="fill:none;stroke-width:0.26458332"
           ry="34.660416"
           rx="35.189583"
           cy="65.489578"
           cx="-82.814568"
           id="ellipse3840"
           transform="scale(-1,1)" />
        <text
           xml:space="preserve"
           style="font-style:normal;font-variant:normal;font-weight:bold;font-stretch:normal;font-size:22.57777778px;line-height:1.25;font-family:Garamond;-inkscape-font-specification:'Garamond, Bold';font-variant-ligatures:normal;font-variant-caps:normal;font-variant-numeric:normal;font-feature-settings:normal;text-align:center;letter-spacing:0px;word-spacing:0px;writing-mode:lr;text-anchor:middle;fill:#007849;fill-opacity:0.60000002;stroke:#000000;stroke-width:0.26499999;stroke-miterlimit:4;stroke-dasharray:none;stroke-opacity:0;"
           id="text3801-8"
           x="97.011108"
           y="81.037979"><tspan
             sodipodi:role="line"
             id="tspan4695"
             x="97.011108"
             y="81.037979"
             style="stroke:#000000;stroke-opacity:0;fill:#007849;fill-opacity:0.60000002;-inkscape-font-specification:'Garamond, Bold';font-family:Garamond;font-weight:bold;font-style:normal;font-stretch:normal;font-variant:normal;font-size:22.57777778px;text-anchor:middle;text-align:center;writing-mode:lr;font-variant-ligatures:normal;font-variant-caps:normal;font-variant-numeric:normal;font-feature-settings:normal;">2020</tspan></text>
      </g>
    </g>
  </g>
</svg>
